PathFileType	4	(X/Y/Z)	C:/Users/beibeiliu/ov580/test_trc/User1\sequence.26_training_dense_left.trc
DataRate	CameraRate	NumFrames	NumMarkers	Units	OrigDataRate	OrigDataStartFrame	OrigNumFrames
120	120	7	19	mm	120	124	330
Frame#	Time	ThumbCMC			ThumbMCP			ThumbIP			ThumbTip			IndexMCP			IndexPIP			IndexTip			MiddleMCP			MiddlePIP			MiddleTip			RingMCP			RingPIP			RingTip			PinkyMCP			PinkyPIP			PinkyTip			BackHand1			BackHand2			BackHand3	
		X0	Y0	Z0	X1	Y1	Z1	X2	Y2	Z2	X3	Y3	Z3	X4	Y4	Z4	X5	Y5	Z5	X6	Y6	Z6	X7	Y7	Z7	X8	Y8	Z8	X9	Y9	Z9	X10	Y10	Z10	X11	Y11	Z11	X12	Y12	Z12	X13	Y13	Z13	X14	Y14	Z14	X15	Y15	Z15	X16	Y16	Z16	X17	Y17	Z17	X18	Y18	Z18	
123	1.025	-113.851	-10.5519	33.4284	-105.71	-28.8323	-2.63987	-118.521	-37.3332	-28.6982	-138.196	-51.1253	-43.7764	-134.878	21.542	-41.6279	-142.654	22.0286	-69.0518	-146.837	21.3155	-95.9142	-162.164	17.9435	-49.6274	-166.122	17.6584	-76.8361	-166.791	20.0619	-105.459	-170.203	-20.3383	-42.7751	-155.157	-52.162	-38.3674	-150.201	-44.8942	-4.96593	-184.311	-36.8044	-24.2441	-161.617	-54.4244	-13.5907	-152.274	-43.6898	13.7869	-183.463	4.44104	14.4271	-180.271	3.67584	47.2448	-150.65	15.5086	33.8274	
124	1.03333	-115.539	-9.7741	33.0735	-106.695	-29.1161	0.555056	-113.955	-39.1964	-29.6982	-134.037	-51.6725	-43.4114	-138.15	20.1169	-41.3902	-143.501	20.0418	-66.231	-148.702	20.2461	-93.2351	-160.949	18.3975	-48.6322	-165.956	17.8895	-78.3416	-167.558	19.5838	-105.663	-171.641	-22.0802	-43.3835	-153.146	-50.4391	-42.0108	-146.375	-43.5265	-5.77589	-184.982	-39.1496	-23.6746	-160.368	-55.2042	-12.7511	-150.619	-40.8296	14.5444	-180.227	6.53599	10.8449	-182.828	2.71835	49.8442	-149.147	14.4685	33.3126	
125	1.04167	-114.377	-7.27654	34.1314	-101.272	-29.0068	3.33496	-108.449	-39.2357	-25.376	-126.725	-51.2454	-44.0637	-136.055	22.2063	-39.8994	-139.485	22.9196	-65.8312	-147.484	21.3291	-92.9799	-161.917	18.5472	-52.098	-165.253	17.7571	-77.9923	-169.301	18.3605	-107.359	-170.753	-22.8032	-44.74	-147.458	-50.1363	-39.3635	-146.843	-46.2252	-5.52375	-182.388	-38.8769	-23.8261	-157.462	-55.1384	-14.0099	-148.867	-42.1547	13.9053	-183.274	4.79197	11.1042	-182.547	3.56414	46.4945	-149.491	16.4365	32.2638	
126	1.05	-113.204	-7.58042	34.7569	-101.93	-26.8274	5.81398	-105.526	-37.0314	-27.3396	-121.452	-49.978	-45.0701	-135.878	23.5175	-44.0126	-138.696	23.1706	-66.4486	-148.467	20.8302	-94.6355	-162.927	17.2466	-46.0468	-160.96	19.2891	-73.5207	-165.026	19.0569	-103.375	-168.181	-24.9007	-47.0928	-149.346	-49.0373	-41.0186	-143.723	-47.1445	-9.03151	-182.314	-40.3298	-24.5442	-156.779	-54.0527	-17.3544	-147.888	-41.2553	12.945	-181.877	6.65925	10.0741	-181.203	0.0587149	50.3473	-151.841	17.8309	30.5639	
127	1.05833	-112.399	-6.45338	36.212	-96.3371	-27.1662	5.02667	-104.537	-34.9509	-23.3396	-118.413	-48.4756	-48.9249	-136.426	22.0184	-42.5512	-137.031	22.5519	-65.2482	-145.977	21.5334	-93.7439	-158.301	19.6828	-50.3695	-160.769	18.7108	-76.7133	-165.747	18.4185	-106.451	-165.747	-21.9428	-46.2287	-149.822	-48.8478	-42.2964	-140.302	-44.5546	-7.19655	-180.465	-40.2524	-24.9029	-157.268	-58.0332	-15.0299	-146.202	-40.5969	12.867	-179.176	5.69682	15.1192	-180.95	3.29155	46.7719	-151.353	17.5272	30.3189	
128	1.06667	-111.963	-7.00666	37.4942	-96.1437	-25.9863	5.74642	-102.695	-33.8484	-24.1654	-113.254	-47.3144	-44.8577	-134.622	21.874	-38.7336	-136.692	22.463	-66.2627	-138.81	21.6049	-89.0175	-158.902	18.0577	-50.2853	-158.538	20.2163	-76.1838	-164.566	16.9911	-105.015	-164.559	-22.8957	-47.0291	-147.994	-48.1982	-43.8444	-140.19	-45.2488	-7.41814	-177.935	-36.2071	-24.833	-155.132	-57.3127	-14.598	-144.899	-38.2197	13.1756	-178.564	4.9432	12.4223	-180.87	2.09432	49.8074	-147.347	17.8575	34.8958	
129	1.075	-110.156	-8.01241	37.7639	-96.8241	-26.125	5.63659	-103.061	-32.8652	-26.1367	-113.982	-44.7359	-42.0691	-129.221	22.8103	-37.0017	-133.369	23.4058	-67.4729	-137.331	22.0585	-88.6705	-159.041	16.6811	-46.5914	-156.842	18.8286	-76.3258	-162.21	17.9952	-104.515	-163.775	-22.9204	-45.376	-146.776	-49.9984	-42.4146	-140.144	-47.32	-8.50446	-178.067	-38.8752	-25.3672	-152.844	-55.3922	-15.9231	-142.232	-39.7499	13.0813	-177.176	5.19951	13.905	-177.356	2.54433	49.7156	-144.056	17.0014	32.9082	
